<?xml version="1.0" encoding="iso-8859-1"?>
<!-- Generator: Adobe Illustrator 16.0.0, SVG Export Plug-In . SVG Version: 6.00 Build 0)  -->
<!DOCTYPE svg PUBLIC "-//W3C//DTD SVG 1.1//EN" "http://www.w3.org/Graphics/SVG/1.1/DTD/svg11.dtd">
<svg version="1.1" id="Capa_1" xmlns="http://www.w3.org/2000/svg" xmlns:xlink="http://www.w3.org/1999/xlink" x="0px" y="0px"
	 width="573.75px" height="573.75px" viewBox="0 0 573.75 573.75" style="enable-background:new 0 0 573.75 573.75;"
	 xml:space="preserve">
<g>
	<g>
		<path d="M162.562,478.125h57.375V420.75h-57.375V478.125z M181.688,439.875h19.125V459h-19.125V439.875z"/>
		<path d="M162.562,382.5h57.375v-57.375h-57.375V382.5z M181.688,344.25h19.125v19.125h-19.125V344.25z"/>
		<circle cx="286.875" cy="66.938" r="9.562"/>
		<rect x="258.188" y="248.625" width="153" height="19.125"/>
		<path d="M430.312,95.625h-19.125c0-21.038-17.213-38.25-38.25-38.25h-19.125C353.812,24.862,327.037,0,296.438,0h-19.125
			c-32.513,0-57.375,24.862-57.375,57.375h-19.125c-21.038,0-38.25,17.212-38.25,38.25h-19.125c-21.038,0-38.25,17.212-38.25,38.25
			V535.5c0,21.037,17.212,38.25,38.25,38.25h286.875c21.037,0,38.25-17.213,38.25-38.25V133.875
			C468.562,112.837,451.35,95.625,430.312,95.625z M181.688,95.625c0-11.475,7.65-19.125,19.125-19.125h38.25V57.375
			c0-21.038,17.212-38.25,38.25-38.25h19.125c21.037,0,38.25,17.212,38.25,38.25V76.5h38.25c11.475,0,19.125,7.65,19.125,19.125
			v19.125c0,11.475-7.65,19.125-19.125,19.125H200.812c-11.475,0-19.125-7.65-19.125-19.125V95.625z M449.438,535.5
			c0,11.475-7.65,19.125-19.125,19.125H143.438c-9.562,0-19.125-7.65-19.125-19.125V133.875c0-11.475,7.65-19.125,19.125-19.125
			h19.125c0,21.038,17.212,38.25,38.25,38.25h172.125c21.037,0,38.25-17.212,38.25-38.25h19.125c9.562,0,19.125,7.65,19.125,19.125
			V535.5z"/>
		<rect x="258.188" y="344.25" width="153" height="19.125"/>
		<rect x="258.188" y="439.875" width="153" height="19.125"/>
		<path d="M162.562,286.875h57.375V229.5h-57.375V286.875z M181.688,248.625h19.125v19.125h-19.125V248.625z"/>
	</g>
</g>
<g>
</g>
<g>
</g>
<g>
</g>
<g>
</g>
<g>
</g>
<g>
</g>
<g>
</g>
<g>
</g>
<g>
</g>
<g>
</g>
<g>
</g>
<g>
</g>
<g>
</g>
<g>
</g>
<g>
</g>
</svg>
